<svg xmlns="http://www.w3.org/2000/svg" xmlns:xlink="http://www.w3.org/1999/xlink" width="500" zoomAndPan="magnify" viewBox="0 0 375 374.999991" height="500" preserveAspectRatio="xMidYMid meet" version="1.0"><path fill="#000000" d="M 189.476562 370.253906 C 374.71875 317.960938 333.660156 87.097656 333.660156 87.097656 C 211.5 69.433594 189.476562 4.75 189.476562 4.75 C 189.476562 4.75 167.449219 69.433594 45.289062 87.097656 C 45.289062 87.097656 4.230469 317.960938 189.476562 370.253906 " fill-opacity="1" fill-rule="nonzero"/><path fill="#ffde59" d="M 189.476562 370.253906 L 190.753906 374.773438 C 223.472656 365.542969 249.453125 350.769531 269.875 332.648438 C 285.195312 319.0625 297.390625 303.609375 307.042969 287.265625 C 321.523438 262.746094 330.304688 236.222656 335.484375 210.773438 C 340.65625 185.316406 342.234375 160.917969 342.234375 140.566406 C 342.234375 108.496094 338.320312 86.472656 338.289062 86.277344 C 337.933594 84.28125 336.34375 82.742188 334.332031 82.453125 C 304.175781 78.089844 280.320312 70.847656 261.503906 62.488281 C 233.28125 49.941406 216.371094 34.910156 206.488281 23.128906 C 201.550781 17.234375 198.375 12.15625 196.445312 8.59375 C 195.484375 6.820312 194.832031 5.425781 194.433594 4.5 C 194.234375 4.035156 194.097656 3.691406 194.015625 3.480469 C 193.972656 3.367188 193.945312 3.296875 193.929688 3.253906 L 193.917969 3.21875 L 193.648438 3.3125 L 193.917969 3.21875 L 193.648438 3.3125 L 193.917969 3.21875 L 191.566406 4.03125 L 193.917969 3.226562 L 193.917969 3.21875 L 191.566406 4.03125 L 193.917969 3.226562 L 193.917969 3.222656 L 189.621094 4.695312 L 193.921875 3.234375 L 193.917969 3.222656 L 189.621094 4.695312 L 193.921875 3.234375 C 193.273438 1.328125 191.488281 0.0507812 189.476562 0.0507812 C 187.460938 0.0507812 185.675781 1.328125 185.023438 3.234375 L 188.523438 4.425781 L 185.027344 3.222656 L 185.023438 3.234375 L 188.523438 4.425781 L 185.027344 3.222656 L 185.761719 3.476562 L 185.027344 3.21875 L 185.027344 3.222656 L 185.761719 3.476562 L 185.027344 3.21875 C 185.003906 3.292969 183.625 7.195312 179.734375 13.273438 C 173.898438 22.394531 162.4375 36.40625 141.308594 49.800781 C 120.175781 63.191406 89.324219 75.980469 44.613281 82.453125 C 42.605469 82.742188 41.015625 84.28125 40.65625 86.277344 C 40.625 86.472656 36.71875 108.496094 36.714844 140.5625 C 36.714844 158.65625 37.957031 179.945312 41.871094 202.332031 C 47.738281 235.898438 59.597656 271.980469 82.421875 303.277344 C 93.835938 318.914062 107.992188 333.339844 125.449219 345.574219 C 142.90625 357.8125 163.65625 367.847656 188.195312 374.773438 C 189.035156 375.011719 189.914062 375.011719 190.753906 374.773438 L 189.476562 370.253906 L 190.753906 365.730469 C 159.296875 356.847656 134.679688 342.789062 115.3125 325.617188 C 100.789062 312.734375 89.214844 298.082031 80 282.484375 C 66.179688 259.097656 57.695312 233.570312 52.675781 208.898438 C 47.65625 184.230469 46.113281 160.433594 46.113281 140.5625 C 46.113281 124.914062 47.074219 111.703125 48.027344 102.429688 C 48.503906 97.796875 48.980469 94.144531 49.335938 91.660156 C 49.511719 90.421875 49.660156 89.472656 49.761719 88.84375 C 49.8125 88.53125 49.851562 88.292969 49.878906 88.136719 L 49.90625 87.96875 L 49.914062 87.929688 L 49.914062 87.921875 L 45.289062 87.097656 L 45.960938 91.75 C 76.882812 87.277344 101.589844 79.8125 121.261719 71.074219 C 150.769531 57.96875 168.921875 41.988281 179.667969 29.164062 C 190.414062 16.339844 193.773438 6.703125 193.921875 6.261719 L 189.476562 4.75 L 185.023438 6.261719 C 185.125 6.558594 186.648438 10.9375 190.839844 17.625 C 197.125 27.65625 209.433594 42.886719 231.816406 57.238281 C 254.195312 71.589844 286.609375 85.046875 332.984375 91.75 L 333.660156 87.097656 L 329.03125 87.921875 L 329.035156 87.929688 C 329.121094 88.402344 332.835938 109.746094 332.832031 140.566406 C 332.832031 158.226562 331.613281 178.992188 327.820312 200.714844 C 322.128906 233.308594 310.632812 268.003906 288.925781 297.742188 C 278.070312 312.617188 264.667969 326.265625 248.101562 337.878906 C 231.53125 349.492188 211.789062 359.070312 188.195312 365.730469 L 189.476562 370.253906 L 190.753906 365.730469 L 189.476562 370.253906 " fill-opacity="1" fill-rule="nonzero"/><path fill="#000000" d="M 189.476562 345.066406 C 349.183594 299.972656 313.789062 106.523438 313.789062 106.523438 C 208.46875 91.292969 189.476562 38.949219 189.476562 38.949219 C 189.476562 38.949219 170.476562 91.292969 65.160156 106.523438 C 65.160156 106.523438 29.765625 299.972656 189.476562 345.066406 " fill-opacity="1" fill-rule="nonzero"/><path fill="#ffde59" d="M 189.476562 345.066406 L 190.753906 349.585938 C 219.035156 341.605469 241.511719 329 259.191406 313.597656 C 272.457031 302.050781 283.015625 288.945312 291.375 275.113281 C 303.914062 254.347656 311.511719 231.949219 315.992188 210.488281 C 320.46875 189.023438 321.824219 168.484375 321.824219 151.363281 C 321.824219 124.375 318.449219 105.878906 318.410156 105.675781 C 318.046875 103.695312 316.457031 102.160156 314.460938 101.871094 C 288.488281 98.117188 267.953125 92.089844 251.769531 85.214844 C 227.5 74.898438 212.996094 62.6875 204.550781 53.191406 C 200.332031 48.445312 197.625 44.367188 195.992188 41.539062 C 195.179688 40.121094 194.632812 39.015625 194.300781 38.292969 C 194.136719 37.933594 194.019531 37.664062 193.957031 37.507812 L 193.894531 37.347656 L 193.886719 37.324219 L 192.710938 37.765625 L 193.886719 37.332031 L 193.886719 37.324219 L 192.710938 37.765625 L 193.886719 37.332031 L 191.074219 38.367188 L 193.890625 37.339844 L 193.886719 37.332031 L 191.074219 38.367188 L 193.890625 37.339844 L 193.890625 37.335938 L 189.609375 38.898438 L 193.894531 37.347656 L 193.890625 37.335938 L 189.609375 38.898438 L 193.894531 37.347656 C 193.222656 35.492188 191.445312 34.25 189.476562 34.25 C 187.5 34.25 185.726562 35.492188 185.054688 37.347656 L 188.742188 38.683594 L 185.058594 37.335938 L 185.054688 37.347656 L 188.742188 38.683594 L 185.058594 37.335938 L 185.203125 37.390625 L 185.0625 37.332031 L 185.058594 37.335938 L 185.203125 37.390625 L 185.0625 37.332031 C 184.910156 37.707031 180.121094 50.085938 162.773438 64.265625 C 145.421875 78.4375 115.425781 94.496094 64.488281 101.871094 C 62.492188 102.160156 60.898438 103.695312 60.535156 105.675781 C 60.5 105.878906 57.121094 124.375 57.121094 151.363281 C 57.121094 166.578125 58.195312 184.503906 61.578125 203.371094 C 66.652344 231.667969 76.917969 262.148438 96.683594 288.671875 C 106.566406 301.929688 118.824219 314.175781 133.929688 324.597656 C 149.039062 335.019531 166.984375 343.597656 188.195312 349.585938 C 189.035156 349.824219 189.914062 349.824219 190.753906 349.585938 L 189.476562 345.066406 L 190.753906 340.546875 C 163.703125 332.902344 142.5625 320.984375 125.933594 306.511719 C 113.460938 295.65625 103.527344 283.339844 95.621094 270.253906 C 83.757812 250.625 76.46875 229.238281 72.164062 208.570312 C 67.847656 187.910156 66.523438 167.984375 66.523438 151.363281 C 66.523438 138.261719 67.34375 127.210938 68.164062 119.460938 C 68.574219 115.589844 68.980469 112.539062 69.285156 110.472656 C 69.441406 109.4375 69.566406 108.648438 69.65625 108.128906 C 69.699219 107.863281 69.730469 107.667969 69.753906 107.539062 L 69.777344 107.402344 L 69.78125 107.371094 L 69.78125 107.367188 L 65.160156 106.523438 L 65.832031 111.171875 C 92.519531 107.3125 113.855469 101.085938 130.855469 93.863281 C 156.355469 83.035156 172.082031 69.945312 181.425781 59.433594 C 190.769531 48.921875 193.722656 41.011719 193.894531 40.550781 L 189.476562 38.949219 L 185.054688 40.550781 C 185.269531 41.164062 190.472656 55.03125 209.117188 70.625 C 218.433594 78.421875 231.09375 86.640625 248.09375 93.863281 C 265.09375 101.085938 286.429688 107.3125 313.113281 111.171875 L 313.789062 106.523438 L 309.164062 107.367188 L 309.164062 107.371094 C 309.230469 107.730469 312.429688 125.570312 312.425781 151.363281 C 312.425781 166.136719 311.378906 183.523438 308.113281 201.714844 C 303.226562 229.015625 293.351562 258.078125 274.722656 283.058594 C 265.40625 295.554688 253.90625 307.046875 239.675781 316.863281 C 225.445312 326.675781 208.484375 334.816406 188.195312 340.546875 L 189.476562 345.066406 L 190.753906 340.546875 L 189.476562 345.066406 " fill-opacity="1" fill-rule="nonzero"/><path fill="#000000" d="M 278.226562 121.117188 L 183.542969 253.878906 L 126.25 179.6875 L 183.542969 215.605469 L 278.226562 121.117188 " fill-opacity="1" fill-rule="nonzero"/><path fill="#ffde59" d="M 278.226562 121.117188 L 274.398438 118.390625 L 183.398438 245.992188 L 146.066406 197.652344 L 181.046875 219.585938 C 182.898438 220.746094 185.320312 220.472656 186.867188 218.933594 L 281.546875 124.441406 L 278.226562 121.117188 L 274.398438 118.390625 L 278.226562 121.117188 L 274.90625 117.792969 L 182.871094 209.636719 L 128.746094 175.703125 C 126.808594 174.492188 124.300781 174.839844 122.765625 176.53125 C 121.230469 178.21875 121.132812 180.746094 122.527344 182.558594 L 179.824219 256.75 C 180.734375 257.929688 182.140625 258.601562 183.636719 258.574219 C 185.128906 258.546875 186.507812 257.820312 187.375 256.605469 L 282.054688 123.84375 C 283.46875 121.859375 283.125 119.105469 281.265625 117.53125 C 279.402344 115.957031 276.628906 116.070312 274.90625 117.792969 L 278.226562 121.117188 " fill-opacity="1" fill-rule="nonzero"/></svg>