<svg xmlns="http://www.w3.org/2000/svg" xmlns:xlink="http://www.w3.org/1999/xlink" width="500" zoomAndPan="magnify" viewBox="0 0 375 374.999991" height="500" preserveAspectRatio="xMidYMid meet" version="1.0"><defs><clipPath id="d572b7c22f"><path d="M 42 0 L 346.902344 0 L 346.902344 375 L 42 375 Z M 42 0 " clip-rule="nonzero"/></clipPath></defs><g clip-path="url(#d572b7c22f)"><path fill="#ffffff" d="M 194.253906 372.5 L 194.925781 374.875 C 227.757812 365.617188 253.734375 350.832031 274.164062 332.710938 C 304.8125 305.527344 322.9375 270.910156 333.386719 236.339844 C 343.839844 201.765625 346.652344 167.203125 346.65625 139.898438 C 346.652344 107.695312 342.734375 85.585938 342.714844 85.480469 C 342.53125 84.433594 341.699219 83.625 340.644531 83.472656 C 279.226562 74.5625 243.257812 53.910156 222.613281 35.636719 C 212.289062 26.496094 205.792969 17.9375 201.886719 11.699219 C 199.933594 8.582031 198.628906 6.039062 197.820312 4.304688 C 197.414062 3.433594 197.132812 2.761719 196.953125 2.320312 C 196.867188 2.097656 196.804688 1.933594 196.765625 1.828125 L 196.726562 1.71875 L 196.71875 1.695312 L 196.3125 1.839844 L 196.71875 1.699219 L 196.71875 1.695312 L 196.3125 1.839844 L 196.71875 1.699219 C 196.378906 0.699219 195.445312 0.0273438 194.382812 0.0273438 C 193.328125 0.0273438 192.394531 0.699219 192.054688 1.695312 L 192.507812 1.855469 L 192.054688 1.695312 L 192.507812 1.855469 L 192.054688 1.695312 C 191.980469 1.894531 186.378906 17.890625 165.652344 36.046875 C 144.914062 54.199219 109.015625 74.574219 48.070312 83.371094 C 47.015625 83.523438 46.179688 84.332031 45.996094 85.378906 C 45.976562 85.476562 42.019531 107.71875 42.015625 140.070312 C 42.023438 176.492188 47.015625 225.753906 68.464844 270.734375 C 79.191406 293.214844 94.046875 314.625 114.453125 332.722656 C 134.855469 350.828125 160.800781 365.605469 193.582031 374.875 C 194.023438 374.996094 194.484375 374.996094 194.925781 374.875 L 194.253906 372.5 L 194.925781 370.128906 C 162.804688 361.046875 137.574219 346.644531 117.726562 329.039062 C 87.957031 302.632812 70.265625 268.945312 60.003906 235.035156 C 49.742188 201.136719 46.945312 167.050781 46.945312 140.070312 C 46.945312 124.09375 47.929688 110.613281 48.902344 101.136719 C 49.390625 96.394531 49.882812 92.660156 50.246094 90.113281 C 50.429688 88.84375 50.582031 87.871094 50.6875 87.214844 C 50.742188 86.886719 50.777344 86.640625 50.804688 86.480469 L 50.839844 86.292969 L 50.847656 86.242188 L 48.421875 85.808594 L 48.773438 88.25 C 110.996094 79.277344 147.992188 58.25 169.40625 39.308594 C 190.820312 20.371094 196.613281 3.59375 196.71875 3.285156 L 194.382812 2.492188 L 192.050781 3.285156 C 192.15625 3.59375 197.941406 20.375 219.339844 39.328125 C 240.738281 58.28125 277.726562 79.339844 339.9375 88.351562 L 340.289062 85.914062 L 337.863281 86.339844 L 337.875 86.398438 C 338.085938 87.617188 341.726562 109.085938 341.726562 139.898438 C 341.730469 175.851562 336.75 224.507812 315.75 268.527344 C 305.25 290.542969 290.761719 311.402344 270.890625 329.023438 C 251.015625 346.648438 225.753906 361.058594 193.585938 370.128906 L 194.253906 372.5 L 194.925781 370.128906 L 194.253906 372.5 " fill-opacity="1" fill-rule="nonzero"/></g><path fill="#ffffff" d="M 194.261719 347 L 194.933594 349.375 C 223.273438 341.382812 245.714844 328.789062 263.367188 313.417969 C 289.847656 290.359375 305.511719 261.121094 314.539062 231.992188 C 323.570312 202.855469 325.996094 173.792969 325.996094 150.851562 C 325.996094 123.78125 322.613281 105.230469 322.59375 105.121094 C 322.402344 104.085938 321.570312 103.277344 320.523438 103.125 C 267.597656 95.449219 236.628906 78.511719 218.882812 63.65625 C 210.007812 56.21875 204.4375 49.296875 201.089844 44.269531 C 199.417969 41.757812 198.304688 39.714844 197.617188 38.324219 C 197.269531 37.628906 197.03125 37.097656 196.882812 36.746094 C 196.808594 36.574219 196.757812 36.441406 196.726562 36.363281 L 196.695312 36.28125 L 196.6875 36.265625 L 195.804688 36.59375 L 196.691406 36.273438 L 196.6875 36.265625 L 195.804688 36.59375 L 196.691406 36.273438 C 196.335938 35.300781 195.410156 34.648438 194.375 34.648438 C 193.339844 34.648438 192.410156 35.296875 192.054688 36.273438 L 192.910156 36.582031 L 192.058594 36.265625 L 192.054688 36.273438 L 192.910156 36.582031 L 192.058594 36.265625 C 192.023438 36.355469 187.246094 49.21875 169.425781 63.988281 C 151.605469 78.746094 120.695312 95.457031 68.179688 103.039062 C 67.132812 103.1875 66.296875 103.992188 66.105469 105.03125 C 66.085938 105.136719 62.671875 123.796875 62.671875 150.988281 C 62.675781 181.59375 66.984375 223.027344 85.515625 260.988281 C 94.78125 279.96875 107.621094 298.074219 125.253906 313.425781 C 142.878906 328.785156 165.289062 341.371094 193.589844 349.375 C 194.03125 349.496094 194.492188 349.496094 194.933594 349.375 L 194.261719 347 L 194.933594 344.628906 C 167.277344 336.808594 145.570312 324.578125 128.492188 309.710938 C 102.882812 287.40625 87.667969 259.097656 78.835938 230.628906 C 70.007812 202.171875 67.601562 173.597656 67.601562 150.988281 C 67.601562 137.597656 68.445312 126.304688 69.285156 118.371094 C 69.703125 114.40625 70.128906 111.28125 70.441406 109.152344 C 70.597656 108.089844 70.726562 107.273438 70.816406 106.730469 C 70.863281 106.457031 70.898438 106.253906 70.921875 106.113281 L 70.949219 105.964844 L 70.957031 105.921875 L 68.53125 105.476562 L 68.882812 107.917969 C 122.554688 100.179688 154.492188 82.910156 173.011719 67.417969 C 191.527344 51.929688 196.578125 38.277344 196.6875 37.953125 L 194.375 37.113281 L 192.054688 37.953125 C 192.164062 38.273438 197.207031 51.933594 215.71875 67.433594 C 234.222656 82.9375 266.148438 100.230469 319.8125 108.003906 L 320.167969 105.5625 L 317.746094 106.007812 L 317.753906 106.054688 C 317.929688 107.054688 321.070312 125.027344 321.070312 150.851562 C 321.074219 180.976562 316.78125 221.773438 298.710938 258.765625 C 289.679688 277.261719 277.222656 294.816406 260.125 309.699219 C 243.027344 324.582031 221.289062 336.816406 193.59375 344.628906 L 194.261719 347 L 194.933594 344.628906 L 194.261719 347 " fill-opacity="1" fill-rule="nonzero"/><path fill="#ffffff" d="M 284.175781 120.328125 L 282.167969 118.898438 L 188.222656 250.558594 L 140.71875 188.996094 L 187 218.035156 C 187.972656 218.648438 189.238281 218.503906 190.050781 217.695312 L 285.914062 122.074219 L 284.175781 120.328125 L 282.167969 118.898438 L 284.175781 120.328125 L 282.433594 118.582031 L 187.960938 212.816406 L 131.644531 177.476562 C 130.625 176.84375 129.3125 177.023438 128.507812 177.910156 C 127.699219 178.792969 127.648438 180.125 128.382812 181.070312 L 186.34375 256.199219 C 186.824219 256.816406 187.558594 257.171875 188.34375 257.160156 C 189.125 257.144531 189.851562 256.761719 190.304688 256.121094 L 286.179688 121.761719 C 286.925781 120.71875 286.742188 119.277344 285.765625 118.449219 C 284.789062 117.621094 283.339844 117.683594 282.433594 118.582031 L 284.175781 120.328125 " fill-opacity="1" fill-rule="nonzero"/><path fill="#ffffff" d="M 90.785156 156.398438 C 90.777344 156.480469 90.097656 162.179688 90.097656 171.507812 C 90.105469 189.167969 92.511719 219.839844 106.652344 249.914062 C 113.722656 264.949219 123.742188 279.828125 137.863281 292.769531 C 151.980469 305.71875 170.195312 316.707031 193.542969 324 C 194.839844 324.410156 196.222656 323.679688 196.628906 322.382812 C 197.035156 321.085938 196.3125 319.703125 195.011719 319.296875 C 172.3125 312.203125 154.785156 301.59375 141.195312 289.140625 C 120.824219 270.460938 109.277344 247.566406 102.824219 226.042969 C 96.367188 204.53125 95.027344 184.417969 95.027344 171.507812 C 95.027344 166.964844 95.191406 163.3125 95.359375 160.808594 C 95.4375 159.554688 95.523438 158.589844 95.585938 157.941406 C 95.613281 157.617188 95.640625 157.371094 95.65625 157.210938 L 95.671875 157.035156 L 95.679688 156.984375 C 95.84375 155.632812 94.875 154.402344 93.527344 154.242188 C 92.175781 154.082031 90.949219 155.046875 90.785156 156.398438 " fill-opacity="1" fill-rule="nonzero"/><path fill="#ffffff" d="M 207.992188 319.933594 C 208.058594 319.910156 213.917969 317.902344 221.886719 314.058594 C 229.863281 310.210938 239.949219 304.546875 248.507812 297.113281 C 249.539062 296.226562 249.644531 294.664062 248.753906 293.640625 C 247.863281 292.613281 246.304688 292.5 245.277344 293.394531 C 237.234375 300.382812 227.472656 305.894531 219.746094 309.617188 C 215.882812 311.480469 212.527344 312.902344 210.148438 313.855469 C 208.957031 314.328125 208.007812 314.6875 207.367188 314.925781 C 207.042969 315.042969 206.796875 315.132812 206.628906 315.191406 L 206.445312 315.253906 L 206.390625 315.273438 C 205.105469 315.71875 204.417969 317.121094 204.863281 318.40625 C 205.304688 319.691406 206.707031 320.378906 207.992188 319.9375 " fill-opacity="1" fill-rule="nonzero"/><path fill="#ffffff" d="M 258.609375 287.027344 C 258.660156 286.984375 262.691406 283.503906 267.660156 278.078125 C 272.625 272.652344 278.535156 265.308594 282.324219 257.371094 C 282.910156 256.140625 282.390625 254.671875 281.164062 254.085938 C 279.933594 253.5 278.460938 254.019531 277.875 255.25 C 274.449219 262.457031 268.804688 269.539062 264.023438 274.75 C 261.632812 277.359375 259.460938 279.503906 257.890625 280.996094 C 257.109375 281.738281 256.480469 282.320312 256.042969 282.710938 C 255.828125 282.910156 255.65625 283.054688 255.546875 283.15625 L 255.421875 283.261719 L 255.386719 283.292969 C 254.355469 284.183594 254.242188 285.738281 255.128906 286.769531 C 256.019531 287.800781 257.578125 287.914062 258.609375 287.027344 " fill-opacity="1" fill-rule="nonzero"/></svg>